<svg width="100%" height="100%" viewBox="0 0 276 402" fill="none" xmlns="http://www.w3.org/2000/svg">
<path
  transform="translate(-270.0, 100.0)"
  fill-rule="evenodd" clip-rule="evenodd" d="M194.342 33.0789C223.214 50.4196 247.117 75.4903 261.029 108.775C274.371 140.695 280.843 178.46 270.259 214.706C260.413 248.424 231.268 270.216 206.842 294.341C185.729 315.192 162.806 329.837 138.385 344.951C103.86 366.317 71.1666 407.102 34.795 400.813C-1.7148 394.5 -23.005 352.987 -35.3088 314.917C-46.6313 279.883 -38.2274 239.893 -29.6745 201.334C-21.8665 166.134 -7.15424 134.374 11.6008 103.439C33.9207 66.6232 52.1615 19.6952 89.059 5.48878C126.271 -8.83858 162.488 13.9469 194.342 33.0789Z" fill="#FFD3AD"/>
</svg>
